<?xml version="1.0" encoding="UTF-8" standalone="no"?><!DOCTYPE svg PUBLIC "-//W3C//DTD SVG 1.1//EN" "http://www.w3.org/Graphics/SVG/1.1/DTD/svg11.dtd"><svg width="100%" height="100%" viewBox="0 0 120 120" version="1.1" xmlns="http://www.w3.org/2000/svg" xmlns:xlink="http://www.w3.org/1999/xlink" xml:space="preserve" xmlns:serif="http://www.serif.com/" style="fill-rule:evenodd;clip-rule:evenodd;stroke-miterlimit:10;"><ellipse cx="59.998" cy="60.003" rx="59.997" ry="59.997" style="fill:#ffd60a;"/><g><clipPath id="_clip1"><polygon id="dna-2858794" points="135.834,98.442 21.797,136.745 -16.665,22.234 97.372,-16.069 135.834,98.442 "/></clipPath><g clip-path="url(#_clip1)"><g><g><g><path d="M5.048,78.656c-3.128,-9.552 5.247,-11.512 5.6,-20.698" style="fill:none;fill-rule:nonzero;stroke:#000;stroke-width:1.07px;"/><path d="M2.077,57.562c-0.399,10.113 8.226,9.537 11.103,18.362" style="fill:none;fill-rule:nonzero;stroke:#000;stroke-width:1.07px;"/></g><path d="M4.538,76.855l8.112,-2.441" style="fill:none;fill-rule:nonzero;stroke:#000;stroke-width:1.07px;"/><path d="M10.649,71.248l-6.154,1.385" style="fill:none;fill-rule:nonzero;stroke:#000;stroke-width:1.07px;"/><path d="M2.032,59.49l8.472,0.107" style="fill:none;fill-rule:nonzero;stroke:#000;stroke-width:1.07px;"/><path d="M9.464,63.239l-6.296,0.381" style="fill:none;fill-rule:nonzero;stroke:#000;stroke-width:1.07px;"/></g><g><g><path d="M2.077,57.562c0.293,-9.909 8.905,-8.64 12.717,-17.266" style="fill:none;fill-rule:nonzero;stroke:#000;stroke-width:1.07px;"/><path d="M6.943,36.829c-0.781,1.768 -1.205,3.689 -1.044,5.66c0.554,5.946 4.961,7.531 4.749,15.469" style="fill:none;fill-rule:nonzero;stroke:#000;stroke-width:1.07px;"/></g><path d="M2.247,55.696l8.447,0.665" style="fill:none;fill-rule:nonzero;stroke:#000;stroke-width:1.07px;"/><path d="M9.977,52.689l-6.237,-0.946" style="fill:none;fill-rule:nonzero;stroke:#000;stroke-width:1.07px;"/><path d="M6.206,38.609l7.862,3.166" style="fill:none;fill-rule:nonzero;stroke:#000;stroke-width:1.07px;"/><path d="M11.78,44.795l-6.008,-1.929" style="fill:none;fill-rule:nonzero;stroke:#000;stroke-width:1.07px;"/></g><g><g><path d="M6.943,36.829c4.22,-9.284 11.102,-4.695 18.08,-11.514" style="fill:none;fill-rule:nonzero;stroke:#000;stroke-width:1.07px;"/><path d="M18.946,19.251c-7.073,6.94 -0.364,12.755 -4.152,21.045" style="fill:none;fill-rule:nonzero;stroke:#000;stroke-width:1.07px;"/></g><path d="M7.778,35.154l7.639,3.671" style="fill:none;fill-rule:nonzero;stroke:#000;stroke-width:1.07px;"/><path d="M16.074,35.14l-5.48,-3.131" style="fill:none;fill-rule:nonzero;stroke:#000;stroke-width:1.07px;"/><path d="M17.613,20.643l6.197,5.785" style="fill:none;fill-rule:nonzero;stroke:#000;stroke-width:1.07px;"/><path d="M20.59,28.421l-4.913,-3.962" style="fill:none;fill-rule:nonzero;stroke:#000;stroke-width:1.07px;"/></g><g><g><path d="M18.946,19.251c6.944,-7.037 12.451,-0.433 21.021,-4.183" style="fill:none;fill-rule:nonzero;stroke:#000;stroke-width:1.07px;"/><path d="M36.504,7.211c-9.1,3.986 -4.926,11.45 -11.482,18.104" style="fill:none;fill-rule:nonzero;stroke:#000;stroke-width:1.07px;"/></g><path d="M20.327,17.986l5.804,6.18" style="fill:none;fill-rule:nonzero;stroke:#000;stroke-width:1.07px;"/><path d="M28.071,20.97l-3.98,-4.9" style="fill:none;fill-rule:nonzero;stroke:#000;stroke-width:1.07px;"/><path d="M34.758,8.023l3.675,7.642" style="fill:none;fill-rule:nonzero;stroke:#000;stroke-width:1.07px;"/><path d="M34.71,16.351l-3.141,-5.476" style="fill:none;fill-rule:nonzero;stroke:#000;stroke-width:1.07px;"/></g><g><g><path d="M36.504,7.211c9.356,-4.07 11.657,4.254 21.114,3.68" style="fill:none;fill-rule:nonzero;stroke:#000;stroke-width:1.07px;"/><path d="M57.209,2.315c-10.128,0.594 -8.713,9.051 -17.242,12.753" style="fill:none;fill-rule:nonzero;stroke:#000;stroke-width:1.07px;"/></g><path d="M38.249,6.536l3.17,7.864" style="fill:none;fill-rule:nonzero;stroke:#000;stroke-width:1.07px;"/><path d="M44.389,12.122l-1.944,-6.007" style="fill:none;fill-rule:nonzero;stroke:#000;stroke-width:1.07px;"/><path d="M55.287,2.451l0.686,8.451" style="fill:none;fill-rule:nonzero;stroke:#000;stroke-width:1.07px;"/><path d="M52.252,10.203l-0.967,-6.239" style="fill:none;fill-rule:nonzero;stroke:#000;stroke-width:1.07px;"/></g><g><g><path d="M57.209,2.315c10.103,-0.361 9.24,7.835 18.361,11.089" style="fill:none;fill-rule:nonzero;stroke:#000;stroke-width:1.07px;"/><path d="M78.294,5.264c-9.25,-3.271 -11.646,5.322 -20.676,5.627" style="fill:none;fill-rule:nonzero;stroke:#000;stroke-width:1.07px;"/></g><path d="M59.083,2.317l0.127,8.478" style="fill:none;fill-rule:nonzero;stroke:#000;stroke-width:1.07px;"/><path d="M62.796,9.742l0.359,-6.302" style="fill:none;fill-rule:nonzero;stroke:#000;stroke-width:1.07px;"/><path d="M76.456,4.69l-2.423,8.123" style="fill:none;fill-rule:nonzero;stroke:#000;stroke-width:1.07px;"/><path d="M70.816,10.809l1.363,-6.163" style="fill:none;fill-rule:nonzero;stroke:#000;stroke-width:1.07px;"/></g><g><g><path d="M78.294,5.264c9.5,3.254 5.939,10.934 13.132,16.964" style="fill:none;fill-rule:nonzero;stroke:#000;stroke-width:1.07px;"/><path d="M96.894,15.616c-7.806,-6.389 -12.578,0.794 -21.324,-2.212" style="fill:none;fill-rule:nonzero;stroke:#000;stroke-width:1.07px;"/></g><path d="M80.04,5.942l-2.949,7.947" style="fill:none;fill-rule:nonzero;stroke:#000;stroke-width:1.07px;"/><path d="M80.819,14.208l2.609,-5.746" style="fill:none;fill-rule:nonzero;stroke:#000;stroke-width:1.07px;"/><path d="M95.385,14.418l-5.181,6.706" style="fill:none;fill-rule:nonzero;stroke:#000;stroke-width:1.07px;"/><path d="M87.922,18.096l3.488,-5.258" style="fill:none;fill-rule:nonzero;stroke:#000;stroke-width:1.07px;"/></g><g><g><path d="M96.894,15.616c7.822,6.446 1.464,12.3 6.123,20.557" style="fill:none;fill-rule:nonzero;stroke:#000;stroke-width:1.07px;"/><path d="M110.512,32.001c-4.9,-8.704 -11.998,-3.936 -19.086,-9.773" style="fill:none;fill-rule:nonzero;stroke:#000;stroke-width:1.07px;"/></g><path d="M98.282,16.874l-5.609,6.352" style="fill:none;fill-rule:nonzero;stroke:#000;stroke-width:1.07px;"/><path d="M96.036,24.865l4.503,-4.418" style="fill:none;fill-rule:nonzero;stroke:#000;stroke-width:1.07px;"/><path d="M109.539,30.336l-7.261,4.366" style="fill:none;fill-rule:nonzero;stroke:#000;stroke-width:1.07px;"/><path d="M101.249,31.056l5.155,-3.636" style="fill:none;fill-rule:nonzero;stroke:#000;stroke-width:1.07px;"/></g><g><g><path d="M110.512,32.001c4.882,8.791 -2.905,11.871 -1.714,21.384" style="fill:none;fill-rule:nonzero;stroke:#000;stroke-width:1.07px;"/><path d="M117.292,52.187c-1.4,-9.849 -9.515,-7.767 -14.275,-16.014" style="fill:none;fill-rule:nonzero;stroke:#000;stroke-width:1.07px;"/></g><path d="M111.35,33.678l-7.533,3.878" style="fill:none;fill-rule:nonzero;stroke:#000;stroke-width:1.07px;"/><path d="M106.355,40.306l5.799,-2.48" style="fill:none;fill-rule:nonzero;stroke:#000;stroke-width:1.07px;"/><path d="M116.984,50.283l-8.345,1.463" style="fill:none;fill-rule:nonzero;stroke:#000;stroke-width:1.07px;"/><path d="M108.988,47.972l6.118,-1.535" style="fill:none;fill-rule:nonzero;stroke:#000;stroke-width:1.07px;"/></g><g><g><path d="M117.292,52.187c1.373,10.08 -7.102,10.013 -9.317,19.313" style="fill:none;fill-rule:nonzero;stroke:#000;stroke-width:1.07px;"/><path d="M116.326,73.47c2.32,-9.755 -6.274,-10.808 -7.528,-20.085" style="fill:none;fill-rule:nonzero;stroke:#000;stroke-width:1.07px;"/></g><path d="M117.468,54.053l-8.423,0.91" style="fill:none;fill-rule:nonzero;stroke:#000;stroke-width:1.07px;"/><path d="M110.428,58.439l6.304,-0.225" style="fill:none;fill-rule:nonzero;stroke:#000;stroke-width:1.07px;"/><path d="M116.731,71.586l-8.308,-1.67" style="fill:none;fill-rule:nonzero;stroke:#000;stroke-width:1.07px;"/><path d="M110.118,66.527l6.259,0.792" style="fill:none;fill-rule:nonzero;stroke:#000;stroke-width:1.07px;"/></g><g><g><path d="M116.326,73.47c-2.351,9.742 -10.548,7.021 -15.665,14.637" style="fill:none;fill-rule:nonzero;stroke:#000;stroke-width:1.07px;"/><path d="M107.747,92.951c5.663,-8.409 -1.903,-12.136 0.228,-21.451" style="fill:none;fill-rule:nonzero;stroke:#000;stroke-width:1.07px;"/></g><path d="M115.815,75.272l-8.181,-2.211" style="fill:none;fill-rule:nonzero;stroke:#000;stroke-width:1.07px;"/><path d="M107.662,76.804l5.959,2.076" style="fill:none;fill-rule:nonzero;stroke:#000;stroke-width:1.07px;"/><path d="M108.797,91.337l-7.152,-4.55" style="fill:none;fill-rule:nonzero;stroke:#000;stroke-width:1.07px;"/><path d="M104.447,84.236l5.554,2.996" style="fill:none;fill-rule:nonzero;stroke:#000;stroke-width:1.07px;"/></g><g><g><path d="M107.747,92.951c-5.457,8.278 -12.373,2.699 -19.882,7.995" style="fill:none;fill-rule:nonzero;stroke:#000;stroke-width:1.07px;"/><path d="M92.717,108.03c8.187,-5.75 2.718,-11.949 7.944,-19.923" style="fill:none;fill-rule:nonzero;stroke:#000;stroke-width:1.07px;"/></g><path d="M106.622,94.448l-6.84,-5.007" style="fill:none;fill-rule:nonzero;stroke:#000;stroke-width:1.07px;"/><path d="M98.464,92.943l4.814,4.081" style="fill:none;fill-rule:nonzero;stroke:#000;stroke-width:1.07px;"/><path d="M94.28,106.903l-5.022,-6.831" style="fill:none;fill-rule:nonzero;stroke:#000;stroke-width:1.07px;"/><path d="M92.79,98.71l4.099,4.801" style="fill:none;fill-rule:nonzero;stroke:#000;stroke-width:1.07px;"/></g><g><g><path d="M92.717,108.03c-8.604,5.754 -8.092,-2.44 -17.311,-0.198" style="fill:none;fill-rule:nonzero;stroke:#000;stroke-width:1.07px;"/><path d="M73.254,116.626c9.77,-2.367 6.985,-10.601 14.611,-15.68" style="fill:none;fill-rule:nonzero;stroke:#000;stroke-width:1.07px;"/></g><path d="M91.122,109.014l-4.561,-7.148" style="fill:none;fill-rule:nonzero;stroke:#000;stroke-width:1.07px;"/><path d="M84.064,104.649l3.006,5.552" style="fill:none;fill-rule:nonzero;stroke:#000;stroke-width:1.07px;"/><path d="M76.681,107.964l2.087,5.958" style="fill:none;fill-rule:nonzero;stroke:#000;stroke-width:1.07px;"/></g><g><g><path d="M73.254,116.626c-9.639,2.309 -10.87,-6.159 -20.082,-7.503" style="fill:none;fill-rule:nonzero;stroke:#000;stroke-width:1.07px;"/><path d="M51.988,117.626c9.936,1.44 6.725,-5.768 15.942,-7.98" style="fill:none;fill-rule:nonzero;stroke:#000;stroke-width:1.07px;"/></g><path d="M66.394,110.363l0.813,6.26" style="fill:none;fill-rule:nonzero;stroke:#000;stroke-width:1.07px;"/><path d="M53.902,117.854l0.888,-8.432" style="fill:none;fill-rule:nonzero;stroke:#000;stroke-width:1.07px;"/><path d="M58.318,110.798l-0.203,6.31" style="fill:none;fill-rule:nonzero;stroke:#000;stroke-width:1.07px;"/></g><g><g><path d="M51.988,117.626c-9.915,-1.274 -7.849,-9.873 -16.014,-14.272" style="fill:none;fill-rule:nonzero;stroke:#000;stroke-width:1.07px;"/><path d="M31.808,110.858c8.782,4.753 12.121,-2.904 21.364,-1.735" style="fill:none;fill-rule:nonzero;stroke:#000;stroke-width:1.07px;"/></g><path d="M50.147,117.284l1.44,-8.355" style="fill:none;fill-rule:nonzero;stroke:#000;stroke-width:1.07px;"/><path d="M47.867,109.3l-1.514,6.127" style="fill:none;fill-rule:nonzero;stroke:#000;stroke-width:1.07px;"/><path d="M33.512,111.756l3.867,-7.542" style="fill:none;fill-rule:nonzero;stroke:#000;stroke-width:1.07px;"/><path d="M40.176,106.773l-2.469,5.808" style="fill:none;fill-rule:nonzero;stroke:#000;stroke-width:1.07px;"/></g><g><g><path d="M31.808,110.858c-8.644,-4.799 -3.842,-11.634 -9.801,-19.081" style="fill:none;fill-rule:nonzero;stroke:#000;stroke-width:1.07px;"/><path d="M15.413,97.266c6.109,7.591 12.583,1.661 20.561,6.088" style="fill:none;fill-rule:nonzero;stroke:#000;stroke-width:1.07px;"/></g><path d="M30.216,109.871l4.35,-7.273" style="fill:none;fill-rule:nonzero;stroke:#000;stroke-width:1.07px;"/><path d="M30.959,101.603l-3.615,5.172" style="fill:none;fill-rule:nonzero;stroke:#000;stroke-width:1.07px;"/><path d="M16.677,98.723l6.326,-5.636" style="fill:none;fill-rule:nonzero;stroke:#000;stroke-width:1.07px;"/><path d="M24.689,96.481l-4.394,4.527" style="fill:none;fill-rule:nonzero;stroke:#000;stroke-width:1.07px;"/></g><g><g><path d="M15.413,97.266c-6.436,-7.838 0.791,-12.596 -2.233,-21.342" style="fill:none;fill-rule:nonzero;stroke:#000;stroke-width:1.07px;"/><path d="M5.048,78.656c3.255,9.451 11.179,6.067 16.959,13.121" style="fill:none;fill-rule:nonzero;stroke:#000;stroke-width:1.07px;"/></g><path d="M14.283,95.77l6.685,-5.206" style="fill:none;fill-rule:nonzero;stroke:#000;stroke-width:1.07px;"/><path d="M17.967,88.333l-5.243,3.507" style="fill:none;fill-rule:nonzero;stroke:#000;stroke-width:1.07px;"/><path d="M5.703,80.466l7.938,-2.958" style="fill:none;fill-rule:nonzero;stroke:#000;stroke-width:1.07px;"/><path d="M13.982,81.286l-5.737,2.621" style="fill:none;fill-rule:nonzero;stroke:#000;stroke-width:1.07px;"/></g></g></g><g><path d="M68.307,99.035l-0.152,-0.282l-0.099,-0.325l0.181,-0.146l0.297,0.164l0.244,0.207l0.259,-0.173l-0.097,-0.305l-0.038,-0.338l0.204,-0.11l0.263,0.216l0.202,0.248l0.286,-0.123l-0.04,-0.317l0.025,-0.339l0.221,-0.071l0.219,0.261l0.153,0.281l0.304,-0.068l0.019,-0.32l0.087,-0.328l0.23,-0.03l0.167,0.297l0.098,0.304l0.312,-0.011l0.077,-0.31l0.146,-0.307l0.232,0.013l0.109,0.322l0.041,0.317l0.308,0.047l0.134,-0.291l0.199,-0.275l0.226,0.056l0.048,0.337l-0.018,0.319l0.295,0.102l0.184,-0.261l0.247,-0.234l0.211,0.097l-0.014,0.339l-0.076,0.311l0.27,0.155l0.229,-0.223l0.286,-0.185l0.19,0.134l-0.077,0.331l-0.132,0.291l0.238,0.202l0.266,-0.177l0.315,-0.129l0.162,0.167l-0.136,0.311l-0.183,0.262l0.196,0.242l0.294,-0.125l0.333,-0.069l0.129,0.194l-0.191,0.281l-0.228,0.224l0.148,0.274l0.313,-0.069l0.34,-0.007l0.091,0.214l-0.239,0.241l-0.266,0.179l0.096,0.296l0.319,-0.01l0.336,0.056l0.05,0.227l-0.28,0.193l-0.293,0.126l0.039,0.309l0.316,0.049l0.319,0.117l0.008,0.232l-0.31,0.138l-0.312,0.071l-0.018,0.311l0.302,0.105l0.292,0.174l-0.035,0.23l-0.33,0.079l-0.32,0.011l-0.075,0.303l0.278,0.159l0.255,0.225l-0.076,0.219l-0.34,0.017l-0.316,-0.047l-0.129,0.283l0.243,0.208l0.21,0.267l-0.115,0.202l-0.337,-0.046l-0.303,-0.104l-0.179,0.255l0.201,0.249l0.158,0.301l-0.151,0.177l-0.323,-0.107l-0.277,-0.158l-0.223,0.217l0.151,0.282l0.1,0.325l-0.181,0.147l-0.297,-0.165l-0.244,-0.207l-0.26,0.174l0.098,0.304l0.038,0.338l-0.205,0.111l-0.262,-0.216l-0.202,-0.249l-0.286,0.123l0.04,0.317l-0.025,0.339l-0.222,0.072l-0.218,-0.261l-0.153,-0.281l-0.304,0.068l-0.019,0.319l-0.087,0.329l-0.23,0.029l-0.167,-0.296l-0.098,-0.305l-0.312,0.011l-0.077,0.31l-0.146,0.308l-0.232,-0.014l-0.109,-0.322l-0.041,-0.317l-0.309,-0.047l-0.133,0.291l-0.199,0.275l-0.226,-0.056l-0.048,-0.336l0.018,-0.319l-0.295,-0.103l-0.184,0.261l-0.247,0.234l-0.211,-0.096l0.014,-0.34l0.076,-0.311l-0.27,-0.154l-0.229,0.223l-0.286,0.184l-0.19,-0.133l0.076,-0.332l0.132,-0.291l-0.237,-0.202l-0.266,0.177l-0.315,0.129l-0.162,-0.166l0.136,-0.312l0.183,-0.262l-0.196,-0.242l-0.294,0.125l-0.333,0.069l-0.129,-0.193l0.191,-0.281l0.228,-0.224l-0.149,-0.274l-0.312,0.069l-0.34,0.006l-0.091,-0.214l0.239,-0.241l0.266,-0.178l-0.096,-0.297l-0.319,0.011l-0.336,-0.056l-0.05,-0.227l0.279,-0.193l0.294,-0.127l-0.039,-0.309l-0.316,-0.048l-0.32,-0.117l-0.008,-0.232l0.311,-0.139l0.312,-0.07l0.018,-0.311l-0.302,-0.106l-0.292,-0.173l0.034,-0.23l0.331,-0.079l0.32,-0.012l0.075,-0.302l-0.278,-0.16l-0.255,-0.224l0.076,-0.22l0.34,-0.017l0.316,0.048l0.129,-0.284l-0.243,-0.208l-0.21,-0.267l0.115,-0.202l0.337,0.046l0.302,0.105l0.18,-0.255l-0.202,-0.249l-0.157,-0.302l0.151,-0.177l0.322,0.107l0.278,0.159l0.223,-0.218Z" style="fill-rule:nonzero;"/><path d="M70.677,101.475c0.675,-0.547 1.666,-0.443 2.213,0.232c0.548,0.675 0.444,1.666 -0.231,2.213c-0.675,0.547 -1.666,0.444 -2.213,-0.231c-0.547,-0.675 -0.444,-1.666 0.231,-2.214Z" style="fill:#fff;fill-rule:nonzero;"/><path d="M70.191,109.498l-0.057,-0.06l-0.109,-0.191l-0.092,-0.315l0.164,-0.133l0.289,0.155l0.165,0.146l0.046,0.068l0.281,-0.172l-0.04,-0.072l-0.056,-0.213l-0.007,-0.328l0.193,-0.086l0.239,0.224l0.121,0.184l0.028,0.078l0.315,-0.094l-0.019,-0.08l0.001,-0.22l0.077,-0.319l0.21,-0.033l0.172,0.279l0.07,0.209l0.006,0.082l0.329,-0.009l0.002,-0.082l0.058,-0.213l0.157,-0.287l0.211,0.022l0.095,0.314l0.013,0.22l-0.015,0.08l0.32,0.077l0.023,-0.078l0.111,-0.191l0.226,-0.237l0.198,0.076l0.01,0.328l-0.044,0.215l-0.035,0.074l0.289,0.157l0.043,-0.07l0.156,-0.155l0.28,-0.17l0.172,0.124l-0.075,0.319l-0.099,0.197l-0.053,0.063l0.239,0.226l0.059,-0.056l0.191,-0.11l0.315,-0.092l0.133,0.165l-0.155,0.289l-0.146,0.164l-0.068,0.047l0.173,0.28l0.071,-0.039l0.214,-0.056l0.327,-0.007l0.087,0.193l-0.225,0.239l-0.184,0.121l-0.077,0.027l0.093,0.316l0.08,-0.019l0.22,0.001l0.319,0.077l0.033,0.21l-0.278,0.172l-0.21,0.069l-0.081,0.007l0.008,0.329l0.082,0.002l0.213,0.058l0.288,0.157l-0.022,0.211l-0.314,0.095l-0.22,0.012l-0.081,-0.015l-0.077,0.321l0.079,0.023l0.191,0.111l0.237,0.226l-0.076,0.198l-0.328,0.01l-0.216,-0.044l-0.074,-0.036l-0.157,0.29l0.07,0.042l0.155,0.157l0.171,0.28l-0.124,0.172l-0.32,-0.075l-0.197,-0.099l-0.062,-0.054l-0.226,0.239l0.056,0.06l0.109,0.191l0.093,0.315l-0.165,0.133l-0.289,-0.155l-0.164,-0.147l-0.047,-0.067l-0.28,0.172l0.039,0.072l0.056,0.213l0.008,0.328l-0.194,0.086l-0.239,-0.224l-0.121,-0.185l-0.027,-0.077l-0.316,0.094l0.019,0.079l-0.001,0.221l-0.077,0.319l-0.21,0.033l-0.172,-0.279l-0.069,-0.209l-0.007,-0.082l-0.329,0.009l-0.002,0.082l-0.058,0.212l-0.157,0.288l-0.211,-0.022l-0.095,-0.314l-0.012,-0.22l0.015,-0.081l-0.321,-0.076l-0.023,0.078l-0.111,0.191l-0.226,0.237l-0.198,-0.076l-0.01,-0.328l0.044,-0.216l0.036,-0.073l-0.29,-0.157l-0.042,0.069l-0.157,0.156l-0.28,0.17l-0.172,-0.124l0.076,-0.32l0.098,-0.197l0.054,-0.062l-0.239,-0.226l-0.06,0.056l-0.191,0.109l-0.315,0.093l-0.133,-0.165l0.155,-0.289l0.147,-0.165l0.067,-0.046l-0.172,-0.281l-0.072,0.04l-0.213,0.056l-0.328,0.007l-0.086,-0.193l0.224,-0.239l0.184,-0.121l0.078,-0.027l-0.094,-0.316l-0.08,0.019l-0.22,-0.001l-0.319,-0.077l-0.033,-0.21l0.279,-0.172l0.209,-0.07l0.082,-0.006l-0.009,-0.329l-0.082,-0.002l-0.213,-0.058l-0.287,-0.158l0.022,-0.21l0.314,-0.095l0.22,-0.013l0.08,0.015l0.077,-0.32l-0.079,-0.023l-0.19,-0.111l-0.237,-0.227l0.075,-0.197l0.328,-0.01l0.216,0.044l0.074,0.036l0.157,-0.29l-0.07,-0.043l-0.155,-0.156l-0.171,-0.28l0.125,-0.172l0.319,0.075l0.197,0.099l0.062,0.054l0.227,-0.239Z" style="fill:#4c4c4c;fill-rule:nonzero;"/><path d="M71.626,110.85c0.555,-0.45 1.37,-0.365 1.821,0.19c0.45,0.556 0.365,1.371 -0.19,1.822c-0.556,0.45 -1.371,0.365 -1.821,-0.191c-0.451,-0.555 -0.366,-1.371 0.19,-1.821Z" style="fill:#fff;fill-rule:nonzero;"/></g></g><path d="M57.708,34.662c-2.172,0.562 -4.047,0.843 -5.625,0.843c-2.992,0 -5.291,-0.787 -6.897,-2.361c-1.605,-1.574 -2.408,-3.83 -2.408,-6.767c0,-2.915 0.803,-5.157 2.408,-6.727c1.606,-1.57 3.893,-2.355 6.862,-2.355c1.898,0 3.781,0.222 5.648,0.667l0,2.825c-2.164,-0.742 -3.941,-1.114 -5.332,-1.114c-1.836,0 -3.254,0.586 -4.254,1.758c-1,1.172 -1.5,2.832 -1.5,4.981c0,2.078 0.535,3.709 1.606,4.892c1.07,1.184 2.546,1.776 4.429,1.776c0.414,0 0.899,-0.059 1.453,-0.176l0,-5.707l3.61,0l0,7.465Z" style="fill-rule:nonzero;"/><path d="M61.751,35.072l0,-17.344l4.781,0l4.172,12.199l4.301,-12.199l4.195,0l0,17.344l-3.328,0l0,-13.09l-4.231,11.93l-2.906,0l-4.148,-12.106l0,13.266l-2.836,0Z" style="fill-rule:nonzero;"/><path d="M68.281,40.8l-1.081,-4.336l0.853,0l0.791,3.173l0.747,-3.173l0.753,0l0.709,3.155l0.832,-3.155l0.624,0l-1.137,4.336l-0.861,0l-0.668,-2.974l-0.701,2.974l-0.861,0Z" style="fill-rule:nonzero;"/><path d="M75.722,40.692c-0.412,0.121 -0.802,0.181 -1.171,0.181c-0.538,0 -0.961,-0.152 -1.272,-0.457c-0.31,-0.304 -0.466,-0.72 -0.466,-1.248c0,-0.498 0.142,-0.899 0.427,-1.202c0.284,-0.304 0.659,-0.456 1.126,-0.456c0.471,0 0.814,0.148 1.031,0.445c0.217,0.297 0.325,0.767 0.325,1.409l-1.995,0c0.059,0.614 0.396,0.92 1.011,0.92c0.291,0 0.619,-0.067 0.984,-0.202l0,0.61Zm-2.006,-1.817l1.154,0c0,-0.549 -0.177,-0.823 -0.53,-0.823c-0.36,0 -0.568,0.274 -0.624,0.823Z" style="fill-rule:nonzero;"/><path d="M76.619,40.8l0,-4.626l0.867,0l0,2.016c0.223,-0.453 0.573,-0.68 1.052,-0.68c0.387,0 0.691,0.142 0.912,0.425c0.222,0.283 0.333,0.673 0.333,1.169c0,0.537 -0.125,0.966 -0.375,1.287c-0.25,0.322 -0.584,0.482 -1.002,0.482c-0.359,0 -0.666,-0.133 -0.92,-0.398l-0.161,0.325l-0.706,0Zm0.867,-0.841c0.211,0.235 0.436,0.352 0.674,0.352c0.213,0 0.383,-0.103 0.51,-0.309c0.127,-0.206 0.19,-0.481 0.19,-0.825c0,-0.658 -0.212,-0.987 -0.636,-0.987c-0.255,0 -0.502,0.165 -0.738,0.495l0,1.274Z" style="fill-rule:nonzero;"/><path d="M37.101,79.433l49.514,0" style="fill:none;stroke:#000;stroke-width:0.81px;stroke-linecap:round;stroke-linejoin:round;stroke-miterlimit:1.5;"/><path d="M37.101,75.077l49.514,0" style="fill:none;stroke:#000;stroke-width:0.81px;stroke-linecap:round;stroke-linejoin:round;stroke-miterlimit:1.5;"/><path d="M43.978,89.978l0,-10.545" style="fill:none;stroke:#000;stroke-width:0.81px;stroke-linecap:round;stroke-linejoin:round;stroke-miterlimit:1.5;"/><path d="M43.978,89.978l11.461,0l0,-10.545l-11.461,10.545Z" style="fill:none;stroke:#000;stroke-width:0.81px;stroke-linecap:round;stroke-linejoin:round;stroke-miterlimit:1.5;"/><path d="M56.356,92.041l-4.814,0l-8.481,0" style="fill:none;stroke:#000;stroke-width:0.81px;stroke-linecap:round;stroke-linejoin:round;stroke-miterlimit:1.5;"/><path d="M57.044,94.333l-5.312,0l-9.359,0" style="fill:none;stroke:#000;stroke-width:0.81px;stroke-linecap:round;stroke-linejoin:round;stroke-miterlimit:1.5;"/><path d="M43.978,89.978l11.461,0l0,-10.545l-11.461,10.545Z" style="fill:none;stroke:#000;stroke-width:0.81px;stroke-linecap:round;stroke-linejoin:round;stroke-miterlimit:1.5;"/><path d="M69.585,88.32l0,-8.597" style="fill:none;stroke:#000;stroke-width:0.81px;stroke-linecap:round;stroke-linejoin:round;stroke-miterlimit:1.5;"/><path d="M69.585,88.32l9.345,0l0,-8.597l-9.345,8.597Z" style="fill:none;stroke:#000;stroke-width:0.81px;stroke-linecap:round;stroke-linejoin:round;stroke-miterlimit:1.5;"/><path d="M79.69,89.978l-3.925,0l-6.915,0" style="fill:none;stroke:#000;stroke-width:0.81px;stroke-linecap:round;stroke-linejoin:round;stroke-miterlimit:1.5;"/><path d="M80.353,91.812l-4.331,0l-7.631,0" style="fill:none;stroke:#000;stroke-width:0.81px;stroke-linecap:round;stroke-linejoin:round;stroke-miterlimit:1.5;"/><path d="M43.978,75.077l0,-32.092l11.461,0l0,32.092" style="fill:none;stroke:#000;stroke-width:0.81px;stroke-linecap:round;stroke-linejoin:round;stroke-miterlimit:1.5;"/><path d="M69.194,75.077l0,-27.261l9.736,0l0,27.261" style="fill:none;stroke:#000;stroke-width:0.81px;stroke-linecap:round;stroke-linejoin:round;stroke-miterlimit:1.5;"/><path d="M37.101,72.785c5.797,-2.06 6.638,-14.041 6.877,-29.8l11.461,0c4.279,35.261 7.677,38.071 13.755,4.831" style="fill:none;stroke:#000;stroke-width:0.81px;stroke-linecap:round;stroke-linejoin:round;stroke-miterlimit:1.5;"/><path d="M78.93,47.816c1.889,13.702 3.98,25.8 7.685,24.969" style="fill:none;stroke:#000;stroke-width:0.81px;stroke-linecap:round;stroke-linejoin:round;stroke-miterlimit:1.5;"/><g><path d="M46.27,66.916l6.877,0.018" style="fill:none;stroke:#000;stroke-width:0.81px;stroke-linecap:round;stroke-linejoin:round;stroke-miterlimit:1.5;"/><path d="M46.27,68.653l6.877,0.019" style="fill:none;stroke:#000;stroke-width:0.81px;stroke-linecap:round;stroke-linejoin:round;stroke-miterlimit:1.5;"/></g><g><path d="M46.27,57.004l6.877,0.018" style="fill:none;stroke:#000;stroke-width:0.81px;stroke-linecap:round;stroke-linejoin:round;stroke-miterlimit:1.5;"/><path d="M46.27,58.742l6.877,0.018" style="fill:none;stroke:#000;stroke-width:0.81px;stroke-linecap:round;stroke-linejoin:round;stroke-miterlimit:1.5;"/></g><g><path d="M46.27,47.093l6.877,0.018" style="fill:none;stroke:#000;stroke-width:0.81px;stroke-linecap:round;stroke-linejoin:round;stroke-miterlimit:1.5;"/><path d="M46.27,48.83l6.877,0.018" style="fill:none;stroke:#000;stroke-width:0.81px;stroke-linecap:round;stroke-linejoin:round;stroke-miterlimit:1.5;"/></g><path d="M71.83,69.869l4.584,0" style="fill:none;stroke:#000;stroke-width:0.81px;stroke-linecap:round;stroke-linejoin:round;stroke-miterlimit:1.5;"/><path d="M71.83,60.324l4.584,0" style="fill:none;stroke:#000;stroke-width:0.81px;stroke-linecap:round;stroke-linejoin:round;stroke-miterlimit:1.5;"/><path d="M71.83,50.779l4.584,0" style="fill:none;stroke:#000;stroke-width:0.81px;stroke-linecap:round;stroke-linejoin:round;stroke-miterlimit:1.5;"/><path d="M50.396,85.535l5.043,4.443" style="fill:none;stroke:#000;stroke-width:0.81px;stroke-linecap:round;stroke-linejoin:round;stroke-miterlimit:1.5;"/><path d="M75.154,84.591l3.776,3.553" style="fill:none;stroke:#000;stroke-width:0.81px;stroke-linecap:round;stroke-linejoin:round;stroke-miterlimit:1.5;"/><path d="M48.792,84.022l-4.814,-4.589" style="fill:none;stroke:#000;stroke-width:0.81px;stroke-linecap:round;stroke-linejoin:round;stroke-miterlimit:1.5;"/><path d="M73.664,83.215l-4.079,-3.782" style="fill:none;stroke:#000;stroke-width:0.81px;stroke-linecap:round;stroke-linejoin:round;stroke-miterlimit:1.5;"/></svg>